# xmcd
#
# Track frame offsets: 
#        150
#        12240
#        27267
#        39417
#        56467
#        69155
#        81215
#        98257
#        110727
#        125885
#        141857
#        155260
#        170382
#        186715
#        201802
#        219280
#        226197
#        238115
#        249812
#        260315
#
# Disc length: 3677 seconds
#
# Revision: 1
# Processed by: cddbd v1.5.2PL0 Copyright (c) Steve Scherf et al.
# Submitted via: ExactAudioCopyFreeDBPlugin 1.0
#
DISCID=070e5b14
DTITLE=Various Artist - Rockin' At The Barn Vol 1
DYEAR=1999
DGENRE=Country
TTITLE0=The Boilers - Tuned Up
TTITLE1=Various ArtistsThe Hangdogs - Hey, Jeneane
TTITLE2=Josie Kreuzer - Boogie Woogie Country Gal
TTITLE3=Elmer - Evil Doings
TTITLE4=Leeann Atherton - Brand New Girl
TTITLE5=Beat Rodeo - Little Girl Lost
TTITLE6=Barn Burners  - Can't Happen To Me
TTITLE7=Sheri Frushay - Walk Tall Cowboy
TTITLE8=The Dew Daddies  - Hello, Honky Tonk
TTITLE9=The Mollys - The Powers Brothers
TTITLE10=Deadnecks - Burnin' Down
TTITLE11=Ronny Elliot  - When You Coming Back, Red Ryder
TTITLE12=Beth Williams - No Radio Playin'
TTITLE13=Billy Eli - Hey, Maria
TTITLE14=Last Train Home  - Best Wishes
TTITLE15=Lucky 7 - Holiday Depression
TTITLE16=Anders Umegard  - Sam Phillips Boogie
TTITLE17=Debra Peters - One Step Ahead of the Law
TTITLE18=The Boilers - Lonely Girl
TTITLE19=Cynthia Gayneau  - Can't Love You Without Leaving
EXTD=
EXTT0=
EXTT1=
EXTT2=
EXTT3=
EXTT4=
EXTT5=
EXTT6=
EXTT7=
EXTT8=
EXTT9=
EXTT10=
EXTT11=
EXTT12=
EXTT13=
EXTT14=
EXTT15=
EXTT16=
EXTT17=
EXTT18=
EXTT19=
PLAYORDER=
